G04 #@! TF.FileFunction,Copper,L2,Bot,Signal*
%FSLAX46Y46*%
G04 Gerber Fmt 4.6, Leading zero omitted, Abs format (unit mm)*
G04 Created by KiCad (PCBNEW 4.0.7-e2-6376~58~ubuntu16.04.1) date Sun Dec 10 19:37:14 2017*
%MOMM*%
%LPD*%
G01*
G04 APERTURE LIST*
%ADD10C,1.000000*%
%ADD11R,1.800000X1.800000*%
%ADD12C,1.800000*%
%ADD13R,1.700000X1.700000*%
%ADD14O,1.700000X1.700000*%
G04 APERTURE END LIST*
D10*
D11*
X186690000Y-64770000D03*
D12*
X186690000Y-67310000D03*
D11*
X185420000Y-73660000D03*
D12*
X187960000Y-73660000D03*
D11*
X185420000Y-81280000D03*
D12*
X187960000Y-81280000D03*
D11*
X185420000Y-88900000D03*
D12*
X187960000Y-88900000D03*
D11*
X185420000Y-96520000D03*
D12*
X187960000Y-96520000D03*
D11*
X185420000Y-104140000D03*
D12*
X187960000Y-104140000D03*
D11*
X195580000Y-73660000D03*
D12*
X193040000Y-73660000D03*
D11*
X195580000Y-81280000D03*
D12*
X193040000Y-81280000D03*
D11*
X195580000Y-88900000D03*
D12*
X193040000Y-88900000D03*
D11*
X195580000Y-96520000D03*
D12*
X193040000Y-96520000D03*
D11*
X194310000Y-64770000D03*
D12*
X194310000Y-67310000D03*
D11*
X194310000Y-105410000D03*
D12*
X194310000Y-102870000D03*
D11*
X203200000Y-73660000D03*
D12*
X200660000Y-73660000D03*
D11*
X203200000Y-81280000D03*
D12*
X200660000Y-81280000D03*
D11*
X203200000Y-88900000D03*
D12*
X200660000Y-88900000D03*
D11*
X203200000Y-96520000D03*
D12*
X200660000Y-96520000D03*
D11*
X201930000Y-64770000D03*
D12*
X201930000Y-67310000D03*
D11*
X201930000Y-105410000D03*
D12*
X201930000Y-102870000D03*
D11*
X210820000Y-73660000D03*
D12*
X208280000Y-73660000D03*
D11*
X210820000Y-81280000D03*
D12*
X208280000Y-81280000D03*
D11*
X210820000Y-88900000D03*
D12*
X208280000Y-88900000D03*
D11*
X210820000Y-96520000D03*
D12*
X208280000Y-96520000D03*
D11*
X209550000Y-64770000D03*
D12*
X209550000Y-67310000D03*
D11*
X209550000Y-105410000D03*
D12*
X209550000Y-102870000D03*
D11*
X218440000Y-73660000D03*
D12*
X215900000Y-73660000D03*
D11*
X218440000Y-81280000D03*
D12*
X215900000Y-81280000D03*
D11*
X218440000Y-88900000D03*
D12*
X215900000Y-88900000D03*
D11*
X218440000Y-96520000D03*
D12*
X215900000Y-96520000D03*
D11*
X217170000Y-64770000D03*
D12*
X217170000Y-67310000D03*
D11*
X217170000Y-105410000D03*
D12*
X217170000Y-102870000D03*
D11*
X224790000Y-64770000D03*
D12*
X224790000Y-67310000D03*
D11*
X226060000Y-73660000D03*
D12*
X223520000Y-73660000D03*
D11*
X226060000Y-81280000D03*
D12*
X223520000Y-81280000D03*
D11*
X226060000Y-88900000D03*
D12*
X223520000Y-88900000D03*
D11*
X226060000Y-96520000D03*
D12*
X223520000Y-96520000D03*
D11*
X224790000Y-105410000D03*
D12*
X224790000Y-102870000D03*
D13*
X199644000Y-111252000D03*
D14*
X202184000Y-111252000D03*
D13*
X208534000Y-111252000D03*
D14*
X211074000Y-111252000D03*
D10*
X194310000Y-105410000D02*
X192786000Y-105410000D01*
X195834000Y-100330000D02*
X197612000Y-98552000D01*
X193548000Y-100330000D02*
X195834000Y-100330000D01*
X192278000Y-101600000D02*
X193548000Y-100330000D01*
X192278000Y-104902000D02*
X192278000Y-101600000D01*
X192786000Y-105410000D02*
X192278000Y-104902000D01*
X211074000Y-111252000D02*
X211328000Y-111252000D01*
X211328000Y-111252000D02*
X217170000Y-105410000D01*
X226060000Y-73660000D02*
X226060000Y-71120000D01*
X226060000Y-64770000D02*
X224790000Y-64770000D01*
X227330000Y-66040000D02*
X226060000Y-64770000D01*
X227330000Y-69850000D02*
X227330000Y-66040000D01*
X226060000Y-71120000D02*
X227330000Y-69850000D01*
X226060000Y-81280000D02*
X226060000Y-73660000D01*
X226060000Y-88900000D02*
X226060000Y-81280000D01*
X226060000Y-96520000D02*
X226060000Y-88900000D01*
X224790000Y-105410000D02*
X226060000Y-105410000D01*
X227330000Y-97790000D02*
X226060000Y-96520000D01*
X227330000Y-104140000D02*
X227330000Y-97790000D01*
X226060000Y-105410000D02*
X227330000Y-104140000D01*
X217170000Y-105410000D02*
X224790000Y-105410000D01*
X209550000Y-105410000D02*
X217170000Y-105410000D01*
X201930000Y-105410000D02*
X209550000Y-105410000D01*
X194310000Y-105410000D02*
X201930000Y-105410000D01*
X217170000Y-64770000D02*
X224790000Y-64770000D01*
X209550000Y-64770000D02*
X217170000Y-64770000D01*
X201930000Y-64770000D02*
X209550000Y-64770000D01*
X194310000Y-64770000D02*
X201930000Y-64770000D01*
X186690000Y-64770000D02*
X194310000Y-64770000D01*
X185420000Y-73660000D02*
X185420000Y-69850000D01*
X185420000Y-64770000D02*
X186690000Y-64770000D01*
X184150000Y-66040000D02*
X185420000Y-64770000D01*
X184150000Y-68580000D02*
X184150000Y-66040000D01*
X185420000Y-69850000D02*
X184150000Y-68580000D01*
X185420000Y-81280000D02*
X185420000Y-73660000D01*
X185420000Y-88900000D02*
X185420000Y-81280000D01*
X185420000Y-96520000D02*
X185420000Y-88900000D01*
X185420000Y-104140000D02*
X185420000Y-96520000D01*
X197612000Y-98552000D02*
X195580000Y-96520000D01*
X203200000Y-98552000D02*
X197612000Y-98552000D01*
X210312000Y-98552000D02*
X213360000Y-98552000D01*
X213360000Y-98552000D02*
X217932000Y-98552000D01*
X217932000Y-98552000D02*
X218440000Y-98044000D01*
X203200000Y-98552000D02*
X205740000Y-98552000D01*
X205740000Y-98552000D02*
X210312000Y-98552000D01*
X210312000Y-98552000D02*
X210820000Y-98044000D01*
X195580000Y-88900000D02*
X195580000Y-96520000D01*
X195580000Y-81280000D02*
X195580000Y-88900000D01*
X203200000Y-98552000D02*
X203200000Y-96520000D01*
X203200000Y-88900000D02*
X203200000Y-96520000D01*
X210820000Y-88900000D02*
X210820000Y-96520000D01*
X210820000Y-98044000D02*
X210820000Y-96520000D01*
X218440000Y-98044000D02*
X218440000Y-96520000D01*
X218440000Y-88900000D02*
X218440000Y-96520000D01*
X203200000Y-81280000D02*
X203200000Y-88900000D01*
X210820000Y-81280000D02*
X210820000Y-88900000D01*
X218440000Y-81280000D02*
X218440000Y-88900000D01*
X195580000Y-73660000D02*
X195580000Y-81280000D01*
X203200000Y-73660000D02*
X203200000Y-81280000D01*
X210820000Y-73660000D02*
X210820000Y-81280000D01*
X218440000Y-73660000D02*
X218440000Y-81280000D01*
X199644000Y-111252000D02*
X192532000Y-111252000D01*
X187960000Y-106680000D02*
X187960000Y-104140000D01*
X192532000Y-111252000D02*
X187960000Y-106680000D01*
X201930000Y-102870000D02*
X194310000Y-102870000D01*
X209550000Y-102870000D02*
X201930000Y-102870000D01*
X217170000Y-102870000D02*
X209550000Y-102870000D01*
X224790000Y-102870000D02*
X217170000Y-102870000D01*
X223520000Y-96520000D02*
X223520000Y-101600000D01*
X223520000Y-101600000D02*
X224790000Y-102870000D01*
X223520000Y-88900000D02*
X223520000Y-96520000D01*
X223520000Y-81280000D02*
X223520000Y-88900000D01*
X223520000Y-73660000D02*
X223520000Y-81280000D01*
X224790000Y-67310000D02*
X224790000Y-68580000D01*
X223520000Y-69850000D02*
X223520000Y-73660000D01*
X224790000Y-68580000D02*
X223520000Y-69850000D01*
X217170000Y-67310000D02*
X224790000Y-67310000D01*
X209550000Y-67310000D02*
X217170000Y-67310000D01*
X201930000Y-67310000D02*
X209550000Y-67310000D01*
X194310000Y-67310000D02*
X201930000Y-67310000D01*
X186690000Y-67310000D02*
X194310000Y-67310000D01*
X187960000Y-73660000D02*
X187960000Y-68580000D01*
X187960000Y-68580000D02*
X186690000Y-67310000D01*
X187960000Y-81280000D02*
X187960000Y-73660000D01*
X187960000Y-96520000D02*
X187960000Y-88900000D01*
X187960000Y-88900000D02*
X187960000Y-81280000D01*
X187960000Y-104140000D02*
X187960000Y-96520000D01*
X208534000Y-111252000D02*
X208534000Y-110490000D01*
X208534000Y-110490000D02*
X206502000Y-108458000D01*
X190500000Y-99060000D02*
X193040000Y-96520000D01*
X190500000Y-106172000D02*
X190500000Y-99060000D01*
X192786000Y-108458000D02*
X190500000Y-106172000D01*
X206502000Y-108458000D02*
X192786000Y-108458000D01*
X215900000Y-70866000D02*
X215900000Y-73660000D01*
X215900000Y-73660000D02*
X215900000Y-81280000D01*
X208280000Y-73660000D02*
X208280000Y-70866000D01*
X208280000Y-70866000D02*
X207518000Y-70104000D01*
X200406000Y-70104000D02*
X207518000Y-70104000D01*
X207518000Y-70104000D02*
X215138000Y-70104000D01*
X215138000Y-70104000D02*
X215900000Y-70866000D01*
X200406000Y-70104000D02*
X200660000Y-70358000D01*
X194310000Y-70104000D02*
X200406000Y-70104000D01*
X208280000Y-81280000D02*
X208280000Y-73660000D01*
X193040000Y-71374000D02*
X194310000Y-70104000D01*
X200660000Y-70358000D02*
X200660000Y-73660000D01*
X200660000Y-73660000D02*
X200660000Y-81280000D01*
X193040000Y-73660000D02*
X193040000Y-71374000D01*
X193040000Y-81280000D02*
X193040000Y-73660000D01*
X215900000Y-81280000D02*
X215900000Y-88900000D01*
X208280000Y-88900000D02*
X208280000Y-81280000D01*
X200660000Y-81280000D02*
X200660000Y-88900000D01*
X215900000Y-88900000D02*
X215900000Y-96520000D01*
X208280000Y-96520000D02*
X208280000Y-88900000D01*
X200660000Y-88900000D02*
X200660000Y-96520000D01*
X193040000Y-88900000D02*
X193040000Y-81280000D01*
X193040000Y-96520000D02*
X193040000Y-88900000D01*
X193040000Y-96520000D02*
X193040000Y-96774000D01*
X202692000Y-111252000D02*
X202184000Y-111252000D01*
X208534000Y-111252000D02*
X202184000Y-111252000D01*
M02*
