M48
;DRILL file {KiCad 4.0.7-e2-6376~58~ubuntu16.04.1} date Sun Dec 10 19:37:25 2017
;FORMAT={-:-/ absolute / metric / decimal}
FMAT,2
METRIC,TZ
T1C0.900
T2C1.000
%
G90
G05
M71
T1
X185.42Y-73.66
X185.42Y-81.28
X185.42Y-88.9
X185.42Y-96.52
X185.42Y-104.14
X186.69Y-64.77
X186.69Y-67.31
X187.96Y-73.66
X187.96Y-81.28
X187.96Y-88.9
X187.96Y-96.52
X187.96Y-104.14
X193.04Y-73.66
X193.04Y-81.28
X193.04Y-88.9
X193.04Y-96.52
X194.31Y-64.77
X194.31Y-67.31
X194.31Y-102.87
X194.31Y-105.41
X195.58Y-73.66
X195.58Y-81.28
X195.58Y-88.9
X195.58Y-96.52
X200.66Y-73.66
X200.66Y-81.28
X200.66Y-88.9
X200.66Y-96.52
X201.93Y-64.77
X201.93Y-67.31
X201.93Y-102.87
X201.93Y-105.41
X203.2Y-73.66
X203.2Y-81.28
X203.2Y-88.9
X203.2Y-96.52
X208.28Y-73.66
X208.28Y-81.28
X208.28Y-88.9
X208.28Y-96.52
X209.55Y-64.77
X209.55Y-67.31
X209.55Y-102.87
X209.55Y-105.41
X210.82Y-73.66
X210.82Y-81.28
X210.82Y-88.9
X210.82Y-96.52
X215.9Y-73.66
X215.9Y-81.28
X215.9Y-88.9
X215.9Y-96.52
X217.17Y-64.77
X217.17Y-67.31
X217.17Y-102.87
X217.17Y-105.41
X218.44Y-73.66
X218.44Y-81.28
X218.44Y-88.9
X218.44Y-96.52
X223.52Y-73.66
X223.52Y-81.28
X223.52Y-88.9
X223.52Y-96.52
X224.79Y-64.77
X224.79Y-67.31
X224.79Y-102.87
X224.79Y-105.41
X226.06Y-73.66
X226.06Y-81.28
X226.06Y-88.9
X226.06Y-96.52
T2
X199.644Y-111.252
X202.184Y-111.252
X208.534Y-111.252
X211.074Y-111.252
T0
M30
